<?xml version="1.0" encoding="UTF-8"?>
<svg id="Layer_1" data-name="Layer 1" xmlns="http://www.w3.org/2000/svg" viewBox="0 0 96.9383 70.1006">
  <defs>
    <style>
      .cls-1 {
        fill: #fff;
      }
    </style>
  </defs>
  <path class="cls-1" d="M63.7839.7874c-1.0499-1.0499-2.7566-1.0499-3.8064,0-1.0499,1.0499-1.0499,2.7566,0,3.8065l27.7647,27.7651H2.692c-1.486,0-2.692,1.206-2.692,2.692s1.206,2.692,2.692,2.692h85.0502l-27.7647,27.7651c-1.0499,1.0499-1.0499,2.7566,0,3.8065.5276.5276,1.2167.786,1.9059.786s1.3782-.2638,1.9059-.786l32.3632-32.363c.5055-.5061.7858-1.1899.7858-1.9059s-.2851-1.3999-.7858-1.9059L63.7893.782l-.0054.0054Z"/>
</svg>